<svg xmlns="http://www.w3.org/2000/svg" version="1.1" xmlns:xlink="http://www.w3.org/1999/xlink" xmlns:svgjs="http://svgjs.com/svgjs" width="1440" height="800" preserveAspectRatio="none" viewBox="0 0 1440 800"><g mask="url(&quot;#SvgjsMask1018&quot;)" fill="none"><rect width="1440" height="800" x="0" y="0" fill="rgba(50, 0, 99, 1)"></rect><path d="M 0,229 C 96,190.2 288,54.2 480,35 C 672,15.8 768,136 960,133 C 1152,130 1344,42.6 1440,20L1440 800L0 800z" fill="rgba(50, 0, 99, 1)"></path><path d="M 0,382 C 41.2,410 123.6,528 206,522 C 288.4,516 329.6,358.6 412,352 C 494.4,345.4 535.6,493.4 618,489 C 700.4,484.6 741.6,347.6 824,330 C 906.4,312.4 947.6,398.8 1030,401 C 1112.4,403.2 1154,325 1236,341 C 1318,357 1399.2,453 1440,481L1440 800L0 800z" fill="rgba(80, 23, 136, 1)"></path><path d="M 0,786 C 96,737.2 288,560.6 480,542 C 672,523.4 768,670.6 960,693 C 1152,715.4 1344,661.8 1440,654L1440 800L0 800z" fill="rgba(255, 255, 255, 1)"></path></g><defs><mask id="SvgjsMask1018"><rect width="1440" height="800" fill="#ffffff"></rect></mask></defs></svg>